<?xml version="1.0" encoding="utf-8"?>
<!-- Generator: Adobe Illustrator 27.0.1, SVG Export Plug-In . SVG Version: 6.00 Build 0)  -->
<svg version="1.1" id="Layer_1" xmlns="http://www.w3.org/2000/svg" xmlns:xlink="http://www.w3.org/1999/xlink" x="0px" y="0px"
	 viewBox="0 0 1577.9 517.5" style="enable-background:new 0 0 1577.9 517.5;" xml:space="preserve">
<style type="text/css">
	.st0{fill:#FFFFFF;}
</style>
<g>
	<g>
		<path class="st0" d="M168.5,476.5c-0.4-2.2-1-4.3-1.1-6.4c-0.1-8.9-1.5-17.3-6.4-24.9c-1.7-2.6-3.7-4.3-7-4.3
			c-3.8,0.1-6.1-2.1-6.8-5.8c-0.5-2.6-0.8-5.4-0.4-8c0.7-4.4,1.9-8.7,3-13.1c0.7-3,0.2-5.3-2.7-6.7c-5.7-2.7-7.4-10.2-4.1-15.6
			c2.4-3.9,4.4-8.3,5.6-12.8c2.4-8.9,4.8-17.8,10-25.5c3.8-5.7,7.7-11.3,11-17.3c3.5-6.5,1.9-12.7-3.2-16.4
			c-2.2-1.7-4.3-3.8-5.8-6.2c-2.6-4.2-4.5-8.9-6.9-13.1c-3-5.1-6.4-10-9.4-15.2c-1.6-2.7-3.5-4.7-6.6-5.1c-3.8-0.5-5.7-2.7-6.6-6.7
			c-1.1-5.1-3.7-6.6-8.7-5.9c-2.8,0.4-5.6,1-8.4,1.5c-3.4,0.7-5.8-0.7-7.7-3.5c-3.1-4.6-5.4-5.4-10.4-3.6c-2.1,0.8-4.1,1.8-6.2,2.5
			c-4.4,1.5-9,3.7-12.9-0.5c-3.2-3.3-6.5-3.8-10.5-2.5c-3.1,1-6.1,2.3-9.2,2.7c-2.8,0.3-6.2,0.4-8.6-0.9c-4.8-2.5-9.4-3.1-14.3-1.4
			c-5.6,1.9-11.1,2-16.8-0.2c-2.7-1-5.8-0.8-8.7-1.1c-1.1,4.7-1.8,8.9-3.1,12.9c-4.1,12.3-3.1,24.6,0.5,36.7
			c2.3,8,3.2,16.1,1.4,24.3c-1.7,7.6-3.1,15.3-2.7,23.1c0.3,6.7,0.2,13.8,2.1,20.1c4.1,13.2,2.9,25.4-2.8,37.6
			C1.3,420.6-0.6,426.2,2,432c2.4,5.6,5.1,11.1,7.5,16.7c3.9,9.1,4.4,18.4,1.1,27.7c-1.6,4.4-3.5,8.7-5.1,12.8c3.8,0.3,7.6-0.1,11,1
			c4.6,1.4,8.9,1.3,13.6,0.2c3.1-0.7,6.9-1.3,9.7-0.1c4.9,2.1,9.4,2.3,14.1,0.2c4.2-1.8,8-1.6,12.1,0.9c2.2,1.3,5.2,1.2,7.6,1.7
			c1-2.1,1.6-3.2,2.1-4.4c2.3-6.2,4.8-12.3,6.6-18.7c1-3.4,0.9-7.1-2-10.4c-1.8,0.8-3.6,1.5-5.3,2.3c-10.9-13.1-8.1-48.5,4.2-51.7
			c-1,4.7-4.1,9.1-1.7,14.6c1.7,0.7,3.8,1.5,6.1,2.5c2.1,6.9,3.9,14.2,6.7,21.1c2.8,6.8,2.8,14.7,6.9,20.4c3,0,5,0,7.3,0
			c3.7,8.1-2.2,14.9-3,22.8c5.2-3.5,9.3-3,13.2,1.6c2.1,2.5,5,1.8,7.6,0.5c2.6-1.3,5.1-2.7,7.7-3.9c2.7-1.3,4.9-0.8,6.8,1.8
			c3.9,5.3,6,5.5,11.6,2.1c3.1-1.9,6.3-3.5,9.9-5.5c1.4,1.9,2.7,3.2,3.6,4.8c2.9,5.1,4.6,5.6,9.5,2.6c1-0.6,1.9-1.3,3-2
			c0-6.1,5.8-11.3,2.7-18.5C174.3,475.6,171.9,476,168.5,476.5z M100.9,342.8c-4.6,7.1-9.5,14-14.7,20.7c-2.6,3.3-6.4,3.1-8.6-0.1
			c-2.7-3.9-6.1-4.3-11.1-3.9c2.7-5.4,5.4-10.7,8-16.1c2.6-5.4,5.2-10.8,4.4-17.1c2.6-0.8,5-1.4,7.2-2.3c3.4-1.4,6-0.6,8.1,2.5
			c1.7,2.4,3.6,4.6,5.5,6.8C102.4,336.2,102.9,339.7,100.9,342.8z M159,392.9c5.5-4.4,7.3-15.5,3.3-19.9
			C157.5,377.2,155.7,387.6,159,392.9z M570.8,223.4c-3.2,6.8-2.9,12.3,2.3,18.1c2.6,0.4,5.6,0.8,8.5,1.2c1.4-2.7,2.7-5,4.2-7.8
			c1.9,0.1,3.9-0.1,5.7,0.4c5.7,1.6,11.4,3.7,17.1,5.3c2.6,0.7,5.3,0.6,7-2.2c2.2-3.6,5.4-4.2,9.1-3.1c4.4,1.3,8.8,2.8,13.3,3.6
			c2.2,0.4,5.1,0.4,6.8-0.9c4.8-3.6,9.5-3.7,14.9-2.1c6,1.9,12,2.8,18.2-0.3c2.4-1.2,5.6-0.7,8.4-0.5c2.9,0.1,5.8,0.8,9.4,1.3
			c-3.6-10.1-0.4-18.6,2.8-27.2c1.4-3.7,2.8-7.4,3.5-11.3c1.6-9-0.2-17.5-3.3-25.3c-19.6-2.9-38.7,3.1-58.3-2
			c-1.5-5.9-3.8-12.9-2.9-20.4c16.8-0.6,33.1-1.2,49.3-1.9c1.1-3.3,2-6.3,3.2-9.1c2.6-6.2,4.8-12.7,3.6-19.4
			c-1.7-9.6-4.5-19-6.9-28.5c-16.5,0-32.4,0-48.8,0c-0.9-8.3,1.1-15.8,4.5-23.2c17.9,0,35.6,0,53.4,0c4.1-10.2,4.4-20.4,0.5-30.2
			c-4-10.1-6.7-20.1-3.2-31.2c-39.8,0-79.2,0-118.6,0c-2.8,9.8-2.3,19.3,1.8,28.3c5.2,11.5,5.2,22.7-0.4,34.1
			c-2.9,5.9-4.2,12.2-3.1,18.7c1.6,9.7,3.7,19.3,5.9,28.9c2,8.6,1.2,16.5-4,23.8c-3.4,4.7-5.5,10-3.9,15.9c1.3,5,3.6,9.8,5,14.8
			c1,3.5,1.6,7.2,1.7,10.8c0.1,4.7-0.5,9.5-0.7,14.2C576.2,205.7,574.8,214.9,570.8,223.4z M3.8,236.5c2.4-0.3,4.9-0.7,7.3-0.7
			c4.7-0.1,9.5-0.8,13.9,0.3c5.9,1.5,11.5,2.1,17.2-0.2c5-2,9.9-1.4,14.4,1.3c5.2,3.1,9.9,2.2,14.8-0.4c-0.1-14.7,0.8-29,4.7-43.1
			c2.2-7.9,1.1-15.8-3-23.1c-1.3-2.3-2.3-4.9-3.2-7.4c-3.6-9-0.7-17,3.7-24.8c0-0.1,0.4,0,0.9,0.1c-2.2,9.1,0.7,17.1,5.2,24.8
			c4.4,7.6,8.6,15.3,13.2,22.8c4,6.6,4.8,13.5,3.3,21c-0.7,3.5-0.6,7.4,0.2,10.9c1.1,4.4,3.3,8.6,5,12.8c0.8,2.1,1.7,4.1,2.5,6.3
			c1.4-0.5,2.4-0.7,3.3-1.1c4.5-2.3,8.3-1.3,11.9,2.1c5.6,5.3,8.7,5.5,15.5,2.1c3.5-1.8,7.2-3.4,10.8-5c3.5-1.5,6.3,0,8.4,2.9
			c5.5,7.6,8.6,8.3,17,3.7c4.5-2.4,9.2-4.6,13.9-6.4c4.8-1.9,6.9-0.7,9.1,4.1c3.5,7.8,5.6,8.7,13.7,6c1.3-0.4,2.5-1,3.8-1.5
			c7.6-3,15.2-6.3,22.9-8.9c5.3-1.8,7.8,0.3,8.5,6c0.2,1.6,0.3,3.3,0.7,4.9c0.9,3.5,3.1,4.2,9.3,3c0.9-4-1-6.5-3.2-9.1
			c-1.9-2.2-4-4.3-5.1-6.9c-2.2-5.2,5.2-18.6,10.5-19.9c7.8-1.8,15.7-3.6,23.6-5.3c4.2-0.9,8.4-1.4,13.1-2.1
			c-2.9,11.8-3.2,22.4,4,32.2c22.8-4.7,45.9-2.7,69.6-3.3c-1.8-2.8-3.1-5.2-4.6-7.2c-4.9-6.5-5.2-13-0.7-19.9
			c3.1-4.7,2.8-9.6,0.4-14.6c-2.2-4.6-4.2-9.3-6.2-14c-2.6-6.1-4.5-12.6-7.9-18.1c-4.3-7.3-5.4-14.2-1.6-21.8
			c2-4.1,2.2-8.5,0.7-12.7c-4-11.2-7.2-22.8-13.8-32.8c-4.7-7.1-4.7-14.5-2.6-22.5c1-3.7,1.7-8,0.9-11.7c-1.7-7.6-3.8-15.3-7.1-22.2
			c-4.4-9.1-11.3-17-10.3-28.1c-28.3-4.9-56-1.8-83.9,0.1c-4.5,7.9-7.4,16.1-3.8,25.2c3.1,7.7,3,15.3-1.3,22.2
			c-6.6,10.5-10.3,22-13.2,34.1c-1.8,7.5-2.9,15.1-0.5,22.4c3,9,1.1,16.3-4.8,23c-3,3.4-5.9,6.9-8.6,10.6c-3.5,4.9-4.6,10-1.5,15.8
			c1.4,2.7,2.2,6,2.6,9.1c1.3,8.5-2.4,15.8-6,22.9c-2.6,5.1-4.7,10.2-3.5,16.1c0.2,1.1,0,2.4-0.5,3.4c-2.7,6.1-5.5,12.2-8.5,18.8
			c-4-8-7.8-15.6-7.1-24.6c0.6-7.5-0.5-14.6-4.3-21.1c-3-5.1-6.4-10.1-9.7-15.1c-5.1-7.6-11-14.8-11.9-24.5
			c-0.5-4.7,0.3-9.6-0.6-14.2c-1.4-7-3.9-13.7-6.1-21.3c0.6-5.6,1.6-12.2,2.1-18.8c0.7-8.5,3.9-15.8,9.4-22.1
			c2.9-3.3,5.9-6.6,8.6-10.1c6.4-8.1,10.5-17,9.1-27.9c-0.9-7.5,1.1-14.5,5.4-20.7c1-1.5,2-3.1,3.4-5.3c-25.6,0-50.4,0-75.4,0
			c-5,7.5-7.8,16-7.7,25.4c0,2.8,0.4,5.6,0.2,8.4c-0.5,10.8-5.1,20-11.2,28.5c-5.4,7.6-10,15.6-11.6,25.1c-0.1,0.7-0.5,1.3-0.7,2.1
			c-0.5-0.3-0.8-0.4-0.8-0.5c-0.3-1-0.5-2-0.7-3c-1.5-8.1,0.1-15.7,2.7-23.4c2-5.9,3.2-12.1,3.6-18.3c0.3-4.2-0.7-8.8-2.3-12.8
			C69.1,28.3,66.5,18,70,6.7c-22.9,0-45.4,0-68,0c-3.2,9.7-2,19,1.9,28.1c5.1,11.8,5.1,23.6,0,35.4c-4.9,11.2-4.8,22.4,0,33.6
			c5.1,11.8,5.1,23.6,0,35.4c-4.7,10.9-5.2,22-0.1,32.8c5.8,12.4,5.7,24.4,0,36.7C-0.6,217.7-0.3,226.9,3.8,236.5z M264.1,138.9
			c3.9-4.9,5.5-10.2,4.7-16.7c-1-8.7-0.7-17.6-1.2-26.5c-0.2-3.8-1.2-7.6-1.2-11.4c0-2.8,1.1-5.5,1.7-8.3c0.4,0.1,0.7,0.1,1.1,0.2
			c0.1,0.5,0.2,1.1,0.2,1.6c-1,9.6,2.1,18.2,6.5,26.4c6.1,11.3,8.2,22.9,4.5,35.9c-1.9,6.5-1.1,13.8-1.5,21.5
			c-2.2-0.6-5.3-1.3-8.2-2.1c0-1.5-0.1-2,0-2.5c0.9-7.2,0.4-7.8-6.9-7.8c-2.1,0-4.2,0-7.4,0C259.4,145.1,261.6,141.9,264.1,138.9z
			 M390.1,252c0.1-0.4,0.2-0.9,0.3-1.3c-2.1-1.3-4.3-2.6-7.4-4.5c0.5,2.9,0.7,4.6,1.1,7.1C386.5,252.7,388.3,252.4,390.1,252z
			 M545,170.6c-1.3-5.8-0.8-11.2,1.3-16.9c3-8.2,5.3-16.8,7.7-25.3c3-10.2,2.3-19.7-4.3-28.7c-5.7-7.8-7.7-16.9-4.4-26.6
			c3.2-9.5,0.4-17.7-5.9-24.4c-16.1-17.4-35.6-29.2-58-35.9C468,8.7,454,7.8,440.1,6.9c-20.3-1.4-40.4,0.5-61.1,3
			c-0.3,3-1.1,6.1-0.7,9c0.8,5.3,2,10.6,3.8,15.6c3.3,9.3,4.5,18.6,2.4,28.3c-0.5,2.1-1,4.3-2,6.2c-6.2,11.5-5.1,22.9-0.6,34.8
			c4.5,12,5.5,24.4-0.6,36.5c-4.2,8.3-4.6,16.8-1.6,25.7c1.8,5.3,3.4,10.8,4.4,16.3c1.8,9.5,1.8,18.8-3.3,27.6
			c-4.6,7.9-4.6,16.3-0.8,25c2,0.1,4.1,0.2,6.2,0.4c7.4,0.8,14.9,1.1,22.2,2.6c16.2,3.3,32.3,7.4,48.5,10.9c2.4,0.5,5.1,0.1,9.1,0.1
			c-2.4-5.1-4.3-9.1-6.7-14.1c2.9-0.2,4.7-0.7,6.4-0.4c6.1,1,12.2,2.4,18.3,3.5c4,0.7,8,2.1,12.2-0.7c0.2-1.3,0.6-2.8,0.7-4.3
			c0.4-8.1,1.3-9.1,9.1-9.9c1.5-0.2,3-0.3,4.5-0.5c4-0.4,7.1-2.5,9.2-5.9c3.6-5.7,8.2-10.2,13.6-14
			C543.2,195.7,547.8,182.6,545,170.6z M485.9,131.8c-0.5,2.4-1.9,4.6-3,6.9c-2.6,5.7-5.1,11.3-7.8,16.9c-1.2,2.6-2.3,5.5-3.9,7.8
			c-2.1,2.9-2.8,5.8-2,9.3c1.6,7.2-1.1,10.1-8.3,9c-2.9-0.5-5.8-1-8.4-1.5c-4.5-6.8-6.4-13.5-5.8-21.4c0.8-10.8,1.9-21.3,6.5-31.3
			c3.4-7.4,1.1-14.7-2.6-21.3c-6.1-11-3.2-22.1-1.8-33.5c7.2-0.4,13.1,1.8,17.7,6.7c6.7,7,13.1,14.5,15.6,24.1
			C484.6,112.7,488,122,485.9,131.8z M701.8,413c0.3-4.7-1.1-9.7-2.5-14.2c-3.1-9.8-10-17-16.7-24.2c-6.1-6.6-6.1-6.5-1.9-14.4
			c0.5-1,1.1-2,1.6-3c3.8-8.6,9-16.2,15.6-22.8c4-4,6.2-8.9,6.4-14.7c0.1-4.5-0.4-9.2,0.9-13.3c3.7-11.6,8.1-22.8,16.9-31.7
			c3.7-3.8,6.5-8.5,9.8-12.7c-0.3-0.3-0.6-0.7-0.9-1c-2.5,0.2-4.9,0.5-7.4,0.6c-5.7,0.1-11.4,0-17,0c-3.4,0-7.1-0.5-10.3,0.5
			c-5.5,1.8-10.6,1.8-16.1,0.4c-3.7-0.9-8.1-1.5-11.6-0.3c-4.9,1.7-9.4,4.1-15.1,1.5c-1.9,9.5-8.3,15.1-14,21.4
			c-2.3,2.7-3.9,6.6-4.5,10.2c-0.7,4.2,0.2,8.6,0.2,13c0,2.4-0.6,4.8-1.2,7c-1,3.5-2.5,6.9-3.4,10.4c-0.7,2.7-1.1,5.5-1.4,8.3
			c-1.2,11.8-12.2,15.1-18.7,23.6c0.5-6.1,1.6-10.9,6.5-13.2c5.9-2.8,7.2-7.7,6.8-13.6c-0.5-7.2-3.6-13.5-7-19.7
			c-2.2-4-4.2-8.2-5.2-12.6c-0.6-2.5,0.2-6.3,1.8-8.1c4-4.5,5.9-9.8,7.4-15.3c0.9-3.6,0.9-7.5,1.2-10.9c-9.1-4.2-10.6-4.1-15.3,0.1
			c-5.5,4.9-7.3,5.1-14,1.7c-3.1-1.6-6.3-2.9-9.5-4.3c-3.6-1.5-6.4-0.5-8.7,2.9c-4.6,6.7-7.3,7.2-14.4,3.2c-1.9-1.1-3.8-2.1-5.9-3.3
			c-0.1,1.1-0.3,1.6-0.2,2.1c0.5,7.1-2,12.7-7.9,16.6c-4.1,2.8-5.1,7-3.7,11.5c1.1,3.8,2.8,7.4,4.6,10.9c2.5,4.8,5.5,9.4,7.8,14.3
			c1.8,3.9,0.8,6.8-2.4,8c-3.3,1.2-4.5,3.8-5,7c-0.4,3.2-0.4,6.4-1,9.5c-1.7,8.6-0.5,16.8,2.3,24.9c0.8,2.2,1.1,4.6,1.8,7.4
			c-3,0.7-5.4,1.3-7.2,1.7c2.4,10.1,5.7,19.3,6.4,28.8c0.7,9.4-1.3,19.1-2.2,29.1c-4-1.6-6.9-2.7-10.4-4.1c0,2.5-0.5,4.2,0.1,5.6
			c1.6,4.1,3.3,8.2,5.5,12.1c4.8,8.7,8.4,17.7,7,28c-0.6,4.3-1.5,8.5-2.2,12.6c1.5,1.3,2.7,2.4,4,3.4c3.9,3,6.2,3,10-0.1
			c0.9-0.7,1.7-1.5,2.6-2.2c3.7-3,5.7-3.4,9.3-0.3c5.2,4.4,9.9,4.7,15,0.1c3.1-2.8,6.5-2.6,10-0.4c2.2,1.4,4.8,2.3,7.2,3.4
			c0.1-0.4,0.1-0.7,0.2-1.1c4.2-1.6,8.4-3.1,12.5-4.6c6.5-15.4,4.8-27.6-3.4-41.8c-6.5-11.3-8.2-23.3-2-35.5
			c1.3-2.5,2.8-4.2,5.8-3.6c0.8,0.2,1.7-0.2,2.4-0.3c4.1-4.3,2.5-9.6,2.3-15.4c3.7,7.3,5.2,14.2,4.4,21.3
			c-1.6,13.7,2.8,25.3,10.6,36c6.3,8.7,10.2,18.4,9.6,29.6c-0.2,3.8-0.9,7.5-1.4,11.1c4.4,2.7,8.5,2.7,12.8,0.8
			c4-1.9,8-1.7,12.3-0.5c3.5,1,7.7,0.9,11.3,0.1c4.4-0.9,8.5-1.6,12.9-0.3c2.2,0.7,4.7,1.1,7,0.7c6.6-1.1,13.2-2.8,19.7-0.2
			c0.4-0.7,0.7-1,0.7-1.4c2.1-14.9-1-28.4-10.2-40.4C705.4,438.5,701,426.7,701.8,413z M329.1,481c-11.4,0.8-20.1,6.9-27.4,15.4
			c-3.6,4.2-6.6,9.1-6.4,15c0.1,2.1,0.9,4.7,2.4,5.9c0.9,0.7,3.8-0.7,5.4-1.9c7.8-5.6,15.4-11.6,23.3-17.1c4-2.8,8.6-4.7,12.7-7.3
			c2-1.3,3.4-3.4,6-6c-2.7-1.7-4.3-3.2-6-3.5C335.9,481,332.5,480.8,329.1,481z M501.3,338c5.4-3.7,9.6-8.2,12.1-14.4
			c4.9-12.4,8.4-25.4,16.7-36.3c-1.3-2.2-2.8-4.4-4.1-6.7c-3.9-7.2-9-13.2-15.7-17.6c-4.1-2.7-8.2-5.8-14-4.7
			c0.1,1.4,0.3,2.6,0.2,3.9c-0.2,3.1-0.5,6.2-0.8,9.3c-3.2-0.6-6.6-0.6-9.5-1.9c-10.6-4.6-21-9.8-32.6-11.5
			c-6.5-0.9-8.7,1.3-7.6,7.8c1.2,6.9-0.9,9.6-7.7,9.7c-5.6,0.1-11.3-0.3-16.8,0.1c-9.4,0.7-15.5,3.5-13.2,14.5
			c0.8,3.8-1.2,6.4-4.6,7.8c-2.8,1.2-5.6,2.2-8.3,3.5c-4.8,2.5-5.8,5.8-3.3,10.7c0.7,1.5,1.4,3,2.1,4.5c2.3,5.6,1.7,7.2-2.3,11.7
			c-3,3.3-6.1,6.9-8,10.9c-3.3,6.9-5.9,14.1-8.6,21.3c-0.7,2-1.2,4.4-0.8,6.4c2.5,11.9,5.2,23.7,8.1,35.4c1,4,0.8,7.3-2.2,10.1
			c-1.1,1-2.2,2.1-3.3,3.1c-5.5,5.7-5.6,10.5-0.4,16.5c1.2,1.4,2.6,2.7,4.1,4c4.1,3.5,8.4,6.9,12.4,10.5c1.4,1.2,2.4,2.8,3.7,4.5
			c-4.7,2.3-10,0.8-12.8,5.3c0.6,5,4.2,7.6,7,10.9c5.4,6.3,10.8,12.6,16,19.2c6.8,8.6,13.1,17.8,22.5,23.7c1.4,0.9,3,1.3,5.1,2.1
			c0.2-8.6-4.7-16.1-1.1-24.8c9.6,7.1,14.6,19,27.1,22.6c0.8-3,1.6-5.5,2-8.1c0.4-2.9,1-5.5,4.4-7c1.6,1.1,3.4,2.2,5.1,3.4
			c8.6,6.1,10.2,6,16.3-2.5c2.2-3,4.7-4,8.3-4c2.7,0.1,5.7-0.6,8.1-1.9c5-2.5,9.9-5.5,14.6-8.6c3.3-2.3,6.2-5.2,9.8-8.2
			c-3.6-6-6.3-11.5-10-16.2c-9.5-12.3-22-22.3-26.4-38.1c-5.9,2.1-9.4,6.2-12.2,11.3c-1.3,2.5-3.5,4.5-5.8,7.4
			c-3.8-2.5-7-4.2-9.7-6.6c-5.7-4.9-9.5-11.1-11.9-18.6c-2.5-7.7-6.3-15-9.7-22.4c-1.7-3.8-1.8-7.5,0.9-10.8c1.8-2.3,1.9-4.6,1-7.2
			c-0.7-1.9-1.7-3.8-1.9-5.8c-0.2-2.7-0.5-5.9,0.7-8c3.7-6.3,8.1-12.3,12.4-18.3c2.4-3.3,5.4-5.1,9.7-3.7c7.1,2.3,14.2,4.6,19.2,11
			c0.5,0.6,1.5,0.7,2.4,1.1c-2.1-8-4.1-15.7-6.4-24.2C492.1,324.2,496,331.9,501.3,338z M454.6,443c-3.8,0.2-11.7-6.3-14.3-11.8
			c-1.3-2.8-1.3-3.2,0.5-5.3C446.1,427.1,454,436.9,454.6,443z M326.9,246.1c-2.1,1-3.8,2.7-6.4,4.5c4.6,2.6,43,3.2,48.8,1.5
			c-0.7-3.3-1.4-6.6-2.1-10.1C353.2,239.4,339.8,240,326.9,246.1z M357.8,363.6c-3.1-8.2-3.7-14.8,2.3-21.9c3.8-4.6,2.8-9-1.6-13.3
			c-2.2-2.2-4.6-4.3-7.2-6.1c-4.3-3-6.1-7-5.3-12.2c0.9-6.2-1.9-10.3-7-12.7c-4.6-2.2-9.5-3.8-14.2-5.6c-3.1-1.2-6.1-2.4-9-3.6
			c-0.5-8,8-9.4,9.1-16.1c-1.4-0.9-2.8-2.2-4.4-2.7c-2.6-0.8-5.4-1.5-8-1.3c-11.5,0.9-23,2.2-34.5,3.4c-3.1,0.3-6.3,1.5-9.7-1.1
			c1.7-2.4,3.5-4.6,4.9-6.9c1.4-2.3,2.4-4.8,3.7-7.3c-5.5-2.5-10.1-0.8-14.5,0.7c-17.3,5.9-33,15.4-48.3,25.4
			c-9.1,5.9-17.4,13.2-21.1,24.1c-2.8,7.9-4.6,16.2-6.7,24.3c-0.2,0.9,0.1,1.9,0.2,2.7c3.3,0.4,6.2,0.8,9.1,1.1
			c0.2,0.5,0.3,1,0.5,1.5c-1.9,3.1-3.7,6.3-5.7,9.3c-1.4,2.1-3.2,3.9-4.7,6c-6.9,9.7-10.9,20-6.7,32.2c1.2,3.4,2.8,5.1,6.4,5.1
			c4.7,0,7.3,2.9,6,7.4c-1.8,6.3-4.4,12.4-6.7,18.5c-1.1,2.8-2.6,5.5-3.4,8.5c-1.1,4.2,0.8,6.7,5,7.2c0.9,0.1,1.7,0.1,3.2,0.2
			c0.7,1.8,1.7,3.7,2.3,5.7c1.2,3.8,1.9,7.7,3.5,11.3c2.3,5.2,4.7,10.9,10.6,12.8c4.9,1.6,7.2,5,8.7,9.7c0.7,2.1,1.8,4.2,3,6.1
			c1.5,2.3,3.8,4.2,5,6.7c2.7,5.6,6.5,8.5,12.8,7.4c0.6-0.1,1.2,0.2,2,0.4c0.5,1.2,1.1,2.5,1.5,3.8c2.5,9.4,5.9,10.9,13.9,5.8
			c1.4-0.9,2.7-1.9,4.2-2.6c1.7-0.9,3.6-1.5,5.9-2.5c0.9,4.9,1.3,9,2.3,12.9c1.4,5.6,4.6,6.3,9,2.6c6.8-5.6,13.2-11.9,20.6-16.4
			c14.2-8.5,28.9-16,43.4-23.9c5.3-2.9,10.6-5.7,15.6-9c5-3.3,5.5-7.5,1.9-12.4c-1.4-1.9-3.1-3.7-4.6-5.5c-2.9-3.5-2.9-5.9-0.1-9.6
			c2.1-2.7,5-5.1,6.1-8.2c3.4-9.1,6.1-18.4,8.9-27.7c0.4-1.4,0.3-3.1-0.1-4.6C363.1,383.1,361.4,373,357.8,363.6z M256.2,336.2
			c6.3-6.5,12.7-13.1,22.8-12.1c1.9,3.7,0.1,6.4-1.7,8.6c-6.2,7.9-13.3,14-24.3,12.1C251.4,340.8,254.1,338.5,256.2,336.2z
			 M282.6,448.5c-2-3.3-1-6.2,1.4-8.8c2.1-2.2,4.4-4.2,7.6-2.2C292.1,443.5,287.7,448.8,282.6,448.5z M300.2,407.1
			c-7.5,7.3-15.7,13.8-23.8,20.3c-3.5,2.8-7.6,4.8-11.6,7c-2.3,1.3-4.5,0.9-5.5-1.8c-1.6-4.3-3-8.6-4.6-12.9c-2-5.4,0.4-10,2.3-14.7
			c0.9-2.3,1.6-4.8,2.1-7.3c0.8-3.5-0.8-5.8-3.9-7.4c-7-3.5-10.2-10.4-7.9-18.1c4.9-16.2,18-30.6,38-29.5c1.5,0.1,3,0.6,4.9,1.1
			c-0.2,2.8-0.4,5-0.5,7.3c-0.3,6.1,0.6,11.9,2.7,17.7c1.5,4.1,1.9,8.7,2.3,13.1c0.3,4.2,1.7,7.6,4.7,10.5
			C304.8,397.3,305.5,402,300.2,407.1z"/>
	</g>
	<g>
		<g>
			<path class="st0" d="M968.8,154.5c0-22.3-0.6-44.6,0.2-66.9c0.5-12,3.3-24,5.2-35.9c0.3-1.5,1.9-2.8,2.9-4.2
				c1,1.4,2.4,2.7,2.8,4.2c2.1,8,3.8,16,5.8,24c0.4,1.5,1.9,2.7,2.9,4c0.7-1.3,1.8-2.6,2.1-4c3.4-15.1,6.5-30.4,10.2-45.4
				c1.3-5.3,3.7-10.3,5.9-15.3c0.5-1.2,2.3-1.9,3.4-2.8c0.8,1.2,2.2,2.4,2.4,3.7c1.1,5.6,1.8,11.3,2.7,16.9c0.2,1.6,0.1,3.3,0.7,4.8
				c0.9,2.2,2.2,4.1,3.4,6.2c1.2-1.8,2.8-3.5,3.7-5.4c4.3-9.8,8.1-19.8,12.7-29.5c1.3-2.8,4.4-4.8,6.7-7.1c1.4,3.1,3.4,6.1,4.1,9.4
				c1,4.5,0.7,9.2,1.4,13.7c0.4,2.3,1.9,4.4,3,6.6c1.5-1.6,3.3-3,4.5-4.8c3.4-5.4,6.2-11.2,10-16.2c2-2.6,5.4-4.1,8.2-6.1
				c1.2,3,2.9,5.9,3.6,9.1c1,4.4,1,9.1,1.9,13.5c1.2,5.7,2.7,6,6.8,1.7c2.3-2.5,4.4-5.2,6.9-7.5c3.9-3.5,7.7-2.7,9.8,2
				c1.9,4.3,2.9,9.1,4.3,13.7c1.1,3.8,2.6,6.4,7.4,6.1c1.9-0.1,5.1,2.7,5.8,4.9c1.9,5.9,4.7,10.1,9.7,14.1
				c4.6,3.7,7.5,10.2,10.2,15.9c4.4,9.3,7.9,18.9,11.9,28.4c3.4,8.1,1.5,11.1-7.2,10.6c-1.1-0.1-2.2-0.2-3.3-0.5
				c-5.4-1.4-6.4,2-4.6,5.6c3.1,6.5,6.9,12.8,11.1,18.7c2.7,3.9,6.7,6.8,9.8,10.3c4.2,4.9,3.6,8.7-2.3,11.3c-4,1.8-8.5,2.6-12.8,3.7
				c-6.2,1.6-7.3,3.7-3.4,8.9c3.8,5,8.8,9.1,13,13.8c2.9,3.2,5.2,7,7.8,10.5c-4,2.5-7.8,5.5-12,7.2c-3.9,1.6-8.2,1.7-12.4,2.6
				c-5.1,1-5.9,4.2-2.9,7.9c3.6,4.4,7.7,8.3,11.7,12.3c1.9,1.9,4.1,3.6,6,5.5c4.3,4.6,3.6,8.5-2.4,10.1c-6,1.5-12.3,1.7-18.5,2.3
				c-2.2,0.2-4.5,0-6.7,0.2c-6.7,0.8-8.3,3.8-4,9.2c4.3,5.5,9.6,10.3,14.1,15.7c1.6,1.9,3.4,5.3,2.7,6.9c-0.7,1.8-4.3,3.5-6.5,3.3
				c-10.4-0.8-20.8-2.3-31.2-3.3c-2.3-0.2-4.6,0.3-6.9,0.6c0.4,2.5,0.2,5.5,1.4,7.6c2.5,4.6,6,8.6,8.6,13.1c1.5,2.6,2,5.7,3,8.6
				c-2.9,0.5-6.2,2.1-8.7,1.2c-12.3-4.6-24.4-9.8-36.6-14.8c-1-0.4-1.9-1.4-3-1.5c-2.1-0.3-4.3-0.2-6.5-0.2c0,2.2-0.4,4.4,0,6.5
				c0.7,3.6,2,7.1,2.7,10.7c0.8,4-1.1,5.8-4.8,4.8c-2.5-0.7-5.4-1.6-7.3-3.3c-18.6-16.5-38-32.1-55.1-50.2
				c-12.2-12.9-17-31.2-21-48.7c-4.1-17.8-6.4-36-9.4-54.1c-0.3-1.6-0.3-3.2,0-4.8c0.2-1,1-1.8,1.6-2.7c0.9,0.6,2,1.1,2.5,2
				c2,3.3,3.6,6.9,5.7,10.2c1,1.6,2.7,2.8,4.1,4.1c0.7-2,1.7-4,1.9-6c0.3-2.5-0.1-5-0.3-7.6C969.6,154.5,969.2,154.5,968.8,154.5z
				 M1043.3,186.7c-0.6,1.5-1.4,3.5-2.2,5.4c-1.8-0.8-3.6-1.5-5.2-2.5c-1.3-0.8-2.3-2.2-3.5-3.1c-1.4-1-2.9-1.9-4.3-2.8
				c-0.4,1.9-1.7,4-1.2,5.6c3.4,10.6,7,21.2,10.8,31.7c0.4,1.1,1.7,2.1,2.8,2.8c8.2,5,16.2,10.2,24.6,14.8c4,2.2,8.5,3.3,12.8,4.9
				c-0.8-4.5-1.6-9-2.3-13.4c0-0.2-0.2-0.4-0.3-0.6c-3.4-10.4-7.1-20.7-10.1-31.2c-1.2-4.2,0.7-6.4,5.2-3.9
				c3.9,2.2,7.7,4.7,11.8,6.5c4.5,1.9,6.4,0.1,5.3-4.7c-1-4.2-2.5-8.3-4-12.4c-8.5-21.8-14.5-44.2-17.1-67.6
				c-1.3-11.4-3.4-22.7-5.4-34c-0.3-1.8-1.8-3.4-2.8-5.1c-0.8,1.8-2.1,3.5-2.4,5.4c-1.1,5.6-1.7,11.3-2.9,16.9
				c-0.6,2.9-2.1,5.7-3.1,8.5c-1.7-2.5-4-4.8-4.9-7.6c-2.8-8-5-16.1-7.6-24.2c-0.4-1.1-1.5-2-2.3-3c-0.8,1.1-1.8,2-2.2,3.2
				c-0.5,1.5-0.6,3.2-0.7,4.8c-2.5,22.6-0.1,44.9,3.9,67.1C1038,160.8,1040.7,173.3,1043.3,186.7z M1086.2,126
				c-3-7.3-6.3-15.2-9.7-23.1c-0.4-0.9-2.1-1.1-3.2-1.6c-0.2,1.1-0.9,2.3-0.6,3.2c2.8,7.9,5.7,15.8,8.8,23.6c0.3,0.9,1.6,1.3,2.5,2
				C1084.4,129.2,1084.9,128.3,1086.2,126z"/>
			<path class="st0" d="M1252.1,18.8c0-4.4-0.3-8.8,0.1-13.1c0.2-2,1.9-3.8,2.9-5.7c1.6,1.1,3.8,1.8,4.8,3.3c4,5.8,7.5,12,11.4,17.8
				c2.2,3.3,4.9,6.1,7.4,9.2c1.4-3.9,3-7.7,4-11.7c0.9-3.3,0.7-6.9,1.5-10.2c0.5-1.8,1.9-3.9,3.4-4.6c0.8-0.4,3.3,1.4,4.2,2.7
				c3.8,5.9,7.3,12.1,10.8,18.2c1.2,2,2.2,4,3.5,5.8c2.2,3,4.3,2.8,6.1-0.5c0.4-0.8,0.8-1.7,1.2-2.5c4.7-9.4,7.4-9.7,13.1-1
				c2.8,4.4,4.8,9.4,8,13.5c2.8,3.6,6.8,6.2,9.8,9.7c2.7,3.1,5.7,6.6,6.8,10.4c2.2,7.9,3.1,16.2,4.7,24.3c0.3,1.4,1.3,2.7,2,4
				c0.9-0.9,1.9-1.8,2.7-2.7c3.6-4.3,6.6-1.7,7.3,1.9c1.8,8.2,3.8,16.7,3.5,25c-0.7,21.6-4.6,42.8-11.9,63.2
				c-1.9,5.2-4.1,10.2-6.4,15.1c-0.6,1.2-2.1,2-3.3,3c-0.4-1.4-1.4-2.9-1.3-4.2c1-10.5,2.4-21,3.4-31.5c0.8-8.2,1.2-16.5,1.6-24.7
				c0.1-1-0.5-2.1-0.7-3.1c-0.7,0.9-1.8,1.7-2.2,2.8c-4.1,12.1-7.8,24.4-12,36.5c-7.7,22.1-17.7,43-30,62.8
				c-0.8,1.3-1.3,2.8-1.9,4.2c1.4-0.9,2.9-1.7,4.1-2.7c2.7-2.4,5.1-5.2,7.9-7.4c1.6-1.2,4-2.1,5.9-1.8c0.9,0.2,1.8,3.4,1.9,5.3
				c0.2,4.6-0.2,9.2,0,13.8c0.1,1.7,0.9,4.4,1.8,4.7c1.6,0.4,4.1-0.2,5.4-1.4c5.7-5.5,11-11.3,16.6-17c0.9-0.9,2.1-1.4,3.2-2
				c0.3,1.2,0.7,2.5,0.8,3.7c0.3,3.3-0.9,7.8,5.1,5.4c0.2-0.1,1.4,2.1,1.9,3.2c1.4,3-0.9,8.7,5.6,8.2c0.2,0,1.2,2.7,0.9,4
				c-3.4,13.5-4.9,28.2-11.4,40c-4.8,8.7-15.9,14-24.5,20.2c-2.5,1.8-5.2-0.3-5.2-4c0-3.2,0.6-6.4,0.4-9.6c-0.1-2.8-1-5.5-1.5-8.3
				c-2.6,0.9-5.6,1.3-7.9,2.8c-7.5,4.9-14.6,10.6-22.3,15.2c-3.6,2.1-8.2,2.5-12.3,3.6c0.3-4.1,0.5-8.2,0.8-12.3
				c0.2-3.9,0.4-7.8,0.5-11.7c-3.7,1.2-7.5,2.2-11.1,3.8c-14.3,6.4-28.3,13.4-42.7,19.4c-3.7,1.5-8.5,0.2-12.8,0.1
				c2-3.4,3.8-6.9,5.9-10.1c2.2-3.4,5-6.5,7.2-9.9c2.6-4.2,0.9-6.3-3.6-5.4c-7.2,1.4-14.3,3.5-21.5,5c-8.7,1.8-17.5,3.3-26.3,4.7
				c-1.2,0.2-2.4-0.4-3.6-0.6c1-0.8,2-1.6,3.1-2.2c10.7-6.1,21.4-12.1,31.9-18.4c1.5-0.9,2.2-3.2,3.3-4.8c-2-0.6-4-1.5-6-1.6
				c-7.8-0.5-15.6-0.6-23.3-1.3c-1.9-0.2-3.6-2.2-5.4-3.4c1.4-1.9,2.4-4.3,4.2-5.6c14.4-10.4,30.2-19.2,43.1-31.3
				c32.5-30.7,52.4-69.2,60-114.1c1.2-7,1.4-14.1,1.9-21.2c0.1-1.2-0.6-2.5-1-3.8c-1,0.7-2.2,1.2-3,2.1c-4.5,5.1-5.2,5-7.4-1.7
				c-2.2-6.7-4-13.6-6.4-20.2c-0.8-2.1-3-3.6-4.5-5.3c-1.1,1.9-2.8,3.8-3.1,5.8c-2,11.9-4.4,23.8-5.4,35.9
				c-0.9,11.3-4.8,20.8-12.1,29c-1.4,1.6-3.6,2.3-5.5,3.4c-0.8-2-2.2-3.9-2.3-6c-0.4-7.1-0.3-14.3-0.6-21.4
				c-0.1-1.7-1.2-3.3-1.8-4.9c-1.6,1-3.6,1.7-4.7,3.1c-6.2,7.8-11.9,16-18.5,23.5c-2.4,2.8-6.7,3.8-10.2,5.6
				c0.1-3.7-0.1-7.3,0.4-10.9c0.8-5.9,2.2-11.7,3-17.5c0.2-1.8-0.8-3.9-1.2-5.8c-1.7,0.9-3.6,1.4-5.1,2.6c-3.1,2.6-5.9,5.7-8.9,8.4
				c-1.3,1.1-3,1.8-4.5,2.7c0.5-1.6,0.7-3.4,1.5-4.9c9.1-17.6,13.6-36.3,12.1-56.2c-0.6-7.9-3-15.7-4.3-23.5c-0.3-2,0.4-4.2,0.7-6.3
				c2,0.7,4.8,0.7,5.9,2.1c5.1,6.6,9.8,13.5,14.5,20.4c1.1,1.7,1.7,3.8,2.8,5.4c0.9,1.3,2.3,2.3,3.5,3.4c0.5-1.4,1.5-2.9,1.5-4.3
				c-0.5-12.1-1.2-24.2-1.9-36.3c-0.1-1.1-0.6-2.3-0.5-3.4c0.3-2,0.9-3.9,1.4-5.8c2,0.8,4.7,1,5.8,2.5c5,6.7,9.5,13.8,14.4,20.7
				c1.9,2.7,4.2,5.1,6.3,7.6c0.9-3.4,2-6.7,2.5-10.1c0.4-2.7,0.1-5.5,0.1-8.3C1252,18.8,1252.1,18.8,1252.1,18.8z M1290.8,226.8
				c0.8-2.8,1.6-5.2,2.2-7.7c0.1-0.5-0.6-1.3-1-1.9c-1.6,1.7-3.5,3.3-4.5,5.3C1287.2,223.1,1289.4,225.1,1290.8,226.8z"/>
			<path class="st0" d="M819.9,18.8c0-4.4-0.3-8.8,0.1-13.1c0.2-2,1.9-3.8,2.9-5.7c1.6,1.1,3.8,1.8,4.8,3.3c4,5.8,7.5,12,11.4,17.8
				c2.2,3.3,4.9,6.1,7.4,9.2c1.4-3.9,3-7.7,4-11.7c0.9-3.3,0.7-6.9,1.5-10.2c0.5-1.8,1.9-3.9,3.4-4.6c0.8-0.4,3.3,1.4,4.2,2.7
				c3.8,5.9,7.3,12.1,10.8,18.2c1.2,2,2.2,4,3.5,5.8c2.2,3,4.3,2.8,6.1-0.5c0.4-0.8,0.8-1.7,1.2-2.5c4.7-9.4,7.4-9.7,13.1-1
				c2.8,4.4,4.8,9.4,8,13.5c2.8,3.6,6.8,6.2,9.8,9.7c2.7,3.1,5.7,6.6,6.8,10.4c2.2,7.9,3.1,16.2,4.7,24.3c0.3,1.4,1.3,2.7,2,4
				c0.9-0.9,1.9-1.8,2.7-2.7c3.6-4.3,6.6-1.7,7.3,1.9c1.8,8.2,3.8,16.7,3.5,25c-0.7,21.6-4.6,42.8-11.9,63.2
				c-1.9,5.2-4.1,10.2-6.4,15.1c-0.6,1.2-2.1,2-3.3,3c-0.4-1.4-1.4-2.9-1.3-4.2c1-10.5,2.4-21,3.4-31.5c0.8-8.2,1.2-16.5,1.6-24.7
				c0.1-1-0.5-2.1-0.7-3.1c-0.7,0.9-1.8,1.7-2.2,2.8c-4.1,12.1-7.8,24.4-12,36.5c-7.7,22.1-17.7,43-30,62.8
				c-0.8,1.3-1.3,2.8-1.9,4.2c1.4-0.9,2.9-1.7,4.1-2.7c2.7-2.4,5.1-5.2,7.9-7.4c1.6-1.2,4-2.1,5.9-1.8c0.9,0.2,1.8,3.4,1.9,5.3
				c0.2,4.6-0.2,9.2,0,13.8c0.1,1.7,0.9,4.4,1.8,4.7c1.6,0.4,4.1-0.2,5.4-1.4c5.7-5.5,11-11.3,16.6-17c0.9-0.9,2.1-1.4,3.2-2
				c0.3,1.2,0.7,2.5,0.8,3.7c0.3,3.3-0.9,7.8,5.1,5.4c0.2-0.1,1.4,2.1,1.9,3.2c1.4,3-0.9,8.7,5.6,8.2c0.2,0,1.2,2.7,0.9,4
				c-3.4,13.5-4.9,28.2-11.4,40c-4.8,8.7-15.9,14-24.5,20.2c-2.5,1.8-5.2-0.3-5.2-4c0-3.2,0.6-6.4,0.4-9.6c-0.1-2.8-1-5.5-1.5-8.3
				c-2.6,0.9-5.6,1.3-7.9,2.8c-7.5,4.9-14.6,10.6-22.3,15.2c-3.6,2.1-8.2,2.5-12.3,3.6c0.3-4.1,0.5-8.2,0.8-12.3
				c0.2-3.9,0.4-7.8,0.5-11.7c-3.7,1.2-7.5,2.2-11.1,3.8c-14.3,6.4-28.3,13.4-42.7,19.4c-3.7,1.5-8.5,0.2-12.8,0.1
				c2-3.4,3.8-6.9,5.9-10.1c2.2-3.4,5-6.5,7.2-9.9c2.6-4.2,0.9-6.3-3.6-5.4c-7.2,1.4-14.3,3.5-21.5,5c-8.7,1.8-17.5,3.3-26.3,4.7
				c-1.2,0.2-2.4-0.4-3.6-0.6c1-0.8,2-1.6,3.1-2.2c10.7-6.1,21.4-12.1,31.9-18.4c1.5-0.9,2.2-3.2,3.3-4.8c-2-0.6-4-1.5-6-1.6
				c-7.8-0.5-15.6-0.6-23.3-1.3c-1.9-0.2-3.6-2.2-5.4-3.4c1.4-1.9,2.4-4.3,4.2-5.6c14.4-10.4,30.2-19.2,43.1-31.3
				c32.5-30.7,52.4-69.2,60-114.1c1.2-7,1.4-14.1,1.9-21.2c0.1-1.2-0.6-2.5-1-3.8c-1,0.7-2.2,1.2-3,2.1c-4.5,5.1-5.2,5-7.4-1.7
				c-2.2-6.7-4-13.6-6.4-20.2c-0.8-2.1-3-3.6-4.5-5.3c-1.1,1.9-2.8,3.8-3.1,5.8c-2,11.9-4.4,23.8-5.4,35.9
				c-0.9,11.3-4.8,20.8-12.1,29c-1.4,1.6-3.6,2.3-5.5,3.4c-0.8-2-2.2-3.9-2.3-6c-0.4-7.1-0.3-14.3-0.6-21.4
				c-0.1-1.7-1.2-3.3-1.8-4.9c-1.6,1-3.6,1.7-4.7,3.1c-6.2,7.8-11.9,16-18.5,23.5c-2.4,2.8-6.7,3.8-10.2,5.6
				c0.1-3.7-0.1-7.3,0.4-10.9c0.8-5.9,2.2-11.7,3-17.5c0.2-1.8-0.8-3.9-1.2-5.8c-1.7,0.9-3.6,1.4-5.1,2.6c-3.1,2.6-5.9,5.7-8.9,8.4
				c-1.3,1.1-3,1.8-4.5,2.7c0.5-1.6,0.7-3.4,1.5-4.9c9.1-17.6,13.6-36.3,12.1-56.2c-0.6-7.9-3-15.7-4.3-23.5c-0.3-2,0.4-4.2,0.7-6.3
				c2,0.7,4.8,0.7,5.9,2.1c5.1,6.6,9.8,13.5,14.5,20.4c1.1,1.7,1.7,3.8,2.8,5.4c0.9,1.3,2.3,2.3,3.5,3.4c0.5-1.4,1.5-2.9,1.5-4.3
				c-0.5-12.1-1.2-24.2-1.9-36.3c-0.1-1.1-0.6-2.3-0.5-3.4c0.3-2,0.9-3.9,1.4-5.8c2,0.8,4.7,1,5.8,2.5c5,6.7,9.5,13.8,14.4,20.7
				c1.9,2.7,4.2,5.1,6.3,7.6c0.9-3.4,2-6.7,2.5-10.1c0.4-2.7,0.1-5.5,0.1-8.3C819.8,18.8,819.8,18.8,819.9,18.8z"/>
			<path class="st0" d="M1574.7,68.4c0,9.2,0.1,18.4-0.1,27.6c0,1.7-0.8,3.3-1.2,5c-1.6-0.7-3.4-1.1-4.6-2.1
				c-10-8.8-10-8.9-19.2-0.2c-3.7,3.6-6.8,3.6-10.2-0.4c-9.3-10.5-9.4-10.5-19.2,0.1c-3.6,3.9-6.8,4-9.9-0.4
				c-1.3-1.9-2.2-4.1-3.6-5.8c-1.8-2.1-5.1-5.8-6-5.3c-2.7,1.5-5.8,4.3-6.5,7.1c-1.7,6.9-2.1,14-2.9,21.1c-0.1,1.1-0.1,2.3-0.2,3.4
				c-0.2,1.8-0.4,3.6-0.6,5.4c1.2-1.3,2.4-2.6,3.5-3.9c4.4-5.4,7-5.3,10.8,0.6c0.8,1.1,1.4,2.3,2.1,3.5c5.2,8.8,5.9,9.1,14.2,2.8
				c4.4-3.4,7.8-2.6,11,1.5c1.9,2.5,3.4,5.4,5.6,7.7c2.1,2.2,4.6,5.1,7.3,5.6c7.1,1.4,10.9,6.5,15.1,11.7
				c24.4,29.8,20.2,62.7,9,95.7c-4.7,14-12.2,27-18.5,40.4c-1.2,2.4-3,4.6-4.8,6.6c-3,3.4-5.7,3.7-8.8-0.4
				c-4.9-6.5-6.2-6.5-11.6-0.3c-4.6,5.3-8.8,11-13.6,16.1c-5.5,5.7-8,5.1-11.5-1.9c-4.3-8.5-5.5-8.8-12.6-2.6
				c-3.4,3-6.8,5.9-10.3,8.7c-4.2,3.3-7.1,2.1-9.5-2.7c-6-12.3-6.1-12.3-17.2-4.7c-8.7,6-11.5,5.1-15.1-4.9
				c-3.4-9.6-4.4-10-13.6-5.8c-9.2,4.2-11.5,3.2-15-6.4c-1.5-4.2-2.3-9.1-8-10c-0.7-0.1-1.8-2.9-1.5-4.1
				c4.2-16.4,8.2-32.8,13.2-48.9c1-3.1,6-5.7,9.6-6.8c1.5-0.5,4.3,3.3,6.5,5.2c0.3,0.3,0.4,0.8,0.6,1.2c6,13.9,6,13.9,18.4,5.7
				c5.6-3.8,8.1-3,10.6,3.5c5.6,14.2,7.6,14.5,17,2.8c2.3-2.8,4.5-5.7,6.9-8.4c3.6-3.9,6.1-2.3,8.1,1.9c1.7,3.5,3.7,6.8,5.6,10.1
				c2.6-3.5,5.7-6.7,7.7-10.6c2.1-4,3.4-8.5,4.4-12.9c1.7-7.9,1.6-15.4-4.5-21.9c-3.1-3.2-5.2-7.4-7.7-11.3
				c-2.9-4.5-6.1-5.3-10.6-1.9c-7.2,5.4-8.8,4.6-12.9-3.8c-1.7-3.5-4.4-6.4-6.7-9.5c-2.8,2.7-5.6,5.5-8.5,8.2
				c-3.4,3.3-6.9,6.6-10.4,9.8c-2-4.2-3.9-8.4-6.1-12.5c-1.2-2.3-2.8-4.4-4.3-6.6c-1.7,1.7-3.9,3.1-5.2,5c-2.6,4-4.8,8.3-7.3,12.4
				c-0.8,1.3-1.9,2.3-2.9,3.4c-0.2-1.5-0.8-3-0.6-4.4c2.3-15.6,5.3-31.2,7-46.9c2.5-23,4.5-46.1,6.2-69.3c1-13.5,1-27.1,1.5-40.6
				c0-1.1-0.3-2.5,0.2-3.4c1.8-3.5,3.8-6.9,5.8-10.4c2.7,2.4,5.7,4.5,8,7.3c2.2,2.6,3.5,5.9,5.4,8.7c2.4,3.6,5.1,3.4,7.3-0.3
				c2-3.3,3.5-7,5.4-10.3c2.6-4.5,5.7-4.9,8.9-0.6c2.5,3.5,4.8,7.2,7.3,10.8c2.8,4.1,5.7,4,8.4-0.1c1.7-2.7,3.1-5.6,4.9-8.2
				c2.8-4.3,6.1-4.3,9.2-0.4c2.3,2.8,4.2,6,6.4,8.8c3,3.9,5.9,4.1,9.2-0.1c9.2-11.6,9.3-11.6,19.3-0.5c4.5,5,6.3,5,10.8,0
				c1.7-1.9,3.1-3.9,5-5.6c0.9-0.8,2.4-1.3,3.7-1.3c4.4-0.1,16.4,12.7,16.4,17.4c0,0.2,0,0.5,0,0.7
				C1574.7,51.3,1574.7,59.8,1574.7,68.4z"/>
			<path class="st0" d="M1186.9,71.9c-0.7,9.5-1.9,16.3-8.2,20.4c-1.6,1-4.7,1.4-6,0.5c-1.1-0.8-1.5-4.4-0.8-6
				c4.1-8.4,4.3-17.1,3.6-26.2c-0.1-1.6,0.8-3.3,1.2-5c1.6,0.9,4.1,1.3,4.8,2.7C1183.9,63.4,1185.7,68.7,1186.9,71.9z"/>
			<path class="st0" d="M1416.9,122.7c-2.6,13.9-5.1,27.8-7.8,41.7c-0.2,1-1,1.9-1.5,2.8c-0.2-1-0.7-2.1-0.6-3.1
				c2.1-16.8,4.2-33.7,6.4-50.5c0.1-0.8,0.7-1.5,1-2.2c0.4,0.7,1.1,1.4,1.1,2.2c0.1,3,0.1,5.9,0.1,8.9
				C1416,122.6,1416.4,122.7,1416.9,122.7z"/>
		</g>
		<g>
			<path class="st0" d="M834.1,337l-23.9,43.7c-0.9,1.7-2,3.5-3.2,5.5c-1.2,2-2.6,4.2-4.2,6.6c5.4-2.9,10.1-4.4,14.2-4.4
				c10.3,0,18.9,4.8,26,14.3c7.2,9.5,10.7,21.1,10.7,34.8c0,16.4-4.8,29.8-14.4,40.3c-9.6,10.3-22.1,15.4-37.5,15.4
				c-14.6,0-26.4-5.1-35.4-15.2c-9-10.2-13.4-23.6-13.4-40.3c0-17.8,8-42.5,24.1-73.9l13.6-26.9H834.1z M815,438.6
				c0-13.5-3.8-20.3-11.5-20.3c-7.3,0-11,6.8-11,20.5c0,14.2,3.7,21.3,11,21.3C811.2,460.1,815,452.9,815,438.6z"/>
			<path class="st0" d="M1001.6,490.5H958l-5.8-8.4c-10.8,7.4-21.8,11-33.2,11c-13.2,0-24.3-4.6-33.5-13.8
				c-9.2-9.3-13.8-20.5-13.8-33.6c0-17,8.6-30.6,25.7-40.7c-7.7-10.1-11.5-20.1-11.5-30.1c0-11.3,4-20.9,12.1-28.8
				c8-8,17.8-11.9,29.4-11.9c12.5,0,23.2,4,32,12.1c8.9,8.1,13.3,17.9,13.3,29.3c0,15.3-8.5,28.6-25.4,40l14.7,19.8
				c1.7-1.9,3.8-4.3,6.1-7.3c2.3-2.9,4.9-6.4,7.8-10.4l20.5,28.2c-2.8,3.2-5.4,6.1-8,8.7c-2.5,2.6-5,5-7.4,7.3L1001.6,490.5z
				 M917,433.5c-4.7,2.9-7.1,6.7-7.1,11.4c0,3.5,1.1,6.5,3.4,9.1c2.2,2.5,4.9,3.7,8.2,3.7c3.5,0,6.9-1.4,10.2-4.2L917,433.5z
				 M929.4,389.2c6.2-6.2,9.3-11.3,9.3-15.3c0-2.3-0.8-4.3-2.3-5.8c-1.5-1.6-3.5-2.3-5.7-2.3c-1.2,0-2.2,0.2-3.2,0.6
				c-1,0.4-1.9,1-2.7,1.7c-0.8,0.7-1.4,1.6-1.8,2.6c-0.5,1-0.7,2-0.7,3.1C922.3,376.7,924.7,381.9,929.4,389.2z"/>
			<path class="st0" d="M1055.9,490.5h-43.4l36-81.8c2.7-6,5.6-12,8.8-17.9c3.1-5.9,6.6-11.8,10.5-17.9h-50.6V337H1123L1055.9,490.5
				z"/>
			<path class="st0" d="M1182.5,488.2v-43c4.6,6.1,10,9.2,16.1,9.2c8.3,0,12.4-6.4,12.4-19.1V337h40.3v106.6
				c0,9.1-0.8,16.3-2.3,21.8c-1.4,5.4-4,10.3-7.8,14.8c-7.3,8.7-18.1,13-32.4,13C1201.3,493.2,1192.5,491.6,1182.5,488.2z"/>
			<path class="st0" d="M1333.2,337h40.3v108.6c0,9.1-1.4,16.4-4.2,22.1c-2.7,5.9-7.2,11.2-13.5,16c-8.5,6.4-18.9,9.5-31,9.5
				c-13.8,0-25.4-3.5-34.7-10.5c-11.9-9-17.8-23.3-17.8-43V337h40.3V436c0,6.7,0.8,11.4,2.4,14.2c1.6,2.8,4.2,4.2,8,4.2
				c3.9,0,6.5-1.3,8-3.9c1.5-2.7,2.2-7.5,2.2-14.4V337z"/>
			<path class="st0" d="M1394.4,490.5V337h38.5l20.2,53.9c1.1,3.2,2.3,6.8,3.7,10.9c1.4,4.1,2.9,8.9,4.6,14.2l4.2,13.5
				c-1.5-13.3-2.6-24.7-3.4-34.2c-0.8-9.5-1.2-17.4-1.2-23.9V337h38.5v153.6H1461l-20.3-56.5c-2.1-6-4-11.7-5.8-17
				c-1.7-5.3-3.2-10.3-4.5-15.1c0.8,10.8,1.5,20.2,1.8,28.2c0.4,8,0.6,15.1,0.6,21.1v39.2H1394.4z"/>
			<path class="st0" d="M1560.7,490.5h-40.3V337h40.3V490.5z"/>
		</g>
	</g>
</g>
</svg>
